<svg xmlns="http://www.w3.org/2000/svg">
  <defs>
    <symbol id="gp-artist" viewBox="0 0 24 24"><circle cx="12" cy="8" r="3"/><path d="M5.5 20c.7-4 2.8-6 6.5-6s5.8 2 6.5 6"/><path d="M19 4v7M16.5 6.5 19 4l2.5 2.5"/></symbol>
    <symbol id="gp-manager" viewBox="0 0 24 24"><circle cx="8" cy="8" r="2.5"/><circle cx="17" cy="9" r="2"/><path d="M3.5 19c.5-3.4 2-5.2 4.5-5.2s4 1.8 4.5 5.2M13.5 18c.4-2.7 1.6-4.1 3.5-4.1s3.1 1.4 3.5 4.1"/><path d="M12 5.5 14.5 3 17 5.5"/></symbol>
    <symbol id="gp-producer" viewBox="0 0 24 24"><path d="M4 5h16v11H4zM8 20h8M12 16v4"/><path d="m8 12 3-3 2.5 2 3-3"/></symbol>
    <symbol id="gp-radar" viewBox="0 0 24 24"><circle cx="12" cy="12" r="9"/><circle cx="12" cy="12" r="5"/><path d="M12 3v9l6.5-6.5M12 12l5 3"/></symbol>
    <symbol id="gp-passport" viewBox="0 0 24 24"><path d="M5 3h14v18H5z"/><circle cx="12" cy="10" r="3"/><path d="M8 17c.7-2 2-3 4-3s3.3 1 4 3"/></symbol>
    <symbol id="gp-evidence" viewBox="0 0 24 24"><path d="M6 3h9l3 3v15H6zM15 3v4h4"/><path d="m9 14 2 2 4-5"/></symbol>
    <symbol id="gp-live" viewBox="0 0 24 24"><path d="M4 19V9M8 19V5M12 19V11M16 19V3M20 19V8"/></symbol>
    <symbol id="gp-audience" viewBox="0 0 24 24"><circle cx="12" cy="7" r="2.5"/><circle cx="5.5" cy="10" r="2"/><circle cx="18.5" cy="10" r="2"/><path d="M7 20c.5-4 2.2-6 5-6s4.5 2 5 6M2.5 20c.3-3 1.3-4.5 3-4.5 1 0 1.8.4 2.4 1.2M21.5 20c-.3-3-1.3-4.5-3-4.5-1 0-1.8.4-2.4 1.2"/></symbol>
    <symbol id="gp-booking" viewBox="0 0 24 24"><path d="M5 5h14v16H5zM8 3v4M16 3v4M5 9h14"/><path d="m9 15 2 2 4-4"/></symbol>
    <symbol id="gp-growth" viewBox="0 0 24 24"><path d="M4 19 10 13l3 3 7-9"/><path d="M15 7h5v5"/></symbol>
    <symbol id="gp-opportunity" viewBox="0 0 24 24"><path d="M12 3a7 7 0 0 0-4 12.7V19h8v-3.3A7 7 0 0 0 12 3zM9 22h6"/><path d="M9 11h6M12 8v6"/></symbol>
    <symbol id="gp-introduction" viewBox="0 0 24 24"><path d="M8 12h8M13 9l3 3-3 3"/><path d="M10 5H5v14h5M14 5h5v14h-5"/></symbol>
    <symbol id="gp-source" viewBox="0 0 24 24"><circle cx="12" cy="12" r="9"/><path d="M8.5 15.5 15.5 8.5M10 8h5.5v5.5"/></symbol>
    <symbol id="gp-lock" viewBox="0 0 24 24"><path d="M6 10h12v11H6zM8.5 10V7.5a3.5 3.5 0 0 1 7 0V10"/><circle cx="12" cy="15" r="1.2"/></symbol>
    <symbol id="gp-approved" viewBox="0 0 24 24"><circle cx="12" cy="12" r="9"/><path d="m8 12 2.5 2.5L16.5 8"/></symbol>
    <symbol id="gp-warning" viewBox="0 0 24 24"><path d="m12 3 10 18H2z"/><path d="M12 9v5M12 18h.01"/></symbol>
    <symbol id="gp-search" viewBox="0 0 24 24"><circle cx="10.5" cy="10.5" r="6.5"/><path d="m15.5 15.5 5 5"/></symbol>
    <symbol id="gp-arrow" viewBox="0 0 24 24"><path d="M4 12h15M14 7l5 5-5 5"/></symbol>
  </defs>
</svg>
